<svg width="320" height="80" viewBox="0 0 320 80" fill="none" xmlns="http://www.w3.org/2000/svg">
<path d="M63.3111 65.2424C72.729 65.2424 80.3638 57.6077 80.3638 48.1897C80.3638 38.7718 72.729 31.137 63.3111 31.137C53.8931 31.137 46.2584 38.7718 46.2584 48.1897C46.2584 57.6077 53.8931 65.2424 63.3111 65.2424Z" fill="white"/>
<path d="M87.3386 48.1907C87.3386 61.4591 76.5814 72.2162 63.3121 72.2162C50.0427 72.2162 39.2865 61.4591 39.2865 48.1907C39.2865 43.6788 40.5326 39.4594 42.6951 35.8529H0V75.247C0 77.3984 1.74446 79.1428 3.8959 79.1428H96.1041C98.2555 79.1428 100 77.3984 100 75.247V35.8529H83.9291C86.0915 39.4594 87.3386 43.6788 87.3386 48.1907Z" fill="white"/>
<path d="M96.1041 10.7441H86.4955L76.6839 0H49.9402L40.1276 10.7441H20.2753V9.1142C20.2753 8.34246 19.6503 7.71743 18.8786 7.71743H6.22921C5.45747 7.71743 4.83244 8.34347 4.83244 9.1142V10.7441H3.8959C1.74446 10.7441 0 12.4886 0 14.64V31.7399H45.8082C50.1904 27.0793 56.4096 24.1642 63.3111 24.1642C70.2135 24.1642 76.4317 27.0793 80.8139 31.7399H100V14.64C100 12.4886 98.2555 10.7441 96.1041 10.7441ZM93.5497 19.8081C91.8153 19.8081 90.4105 18.4033 90.4105 16.6698C90.4105 14.9364 91.8153 13.5306 93.5497 13.5306C95.2831 13.5306 96.6879 14.9354 96.6879 16.6698C96.6879 18.4023 95.2831 19.8081 93.5497 19.8081ZM18.6906 22.3002C18.6906 23.0719 18.0646 23.6969 17.2929 23.6969H4.64352C3.87178 23.6969 3.24675 23.0719 3.24675 22.3002V14.9274C3.24675 14.1557 3.87178 13.5306 4.64352 13.5306H17.2929C18.0646 13.5306 18.6906 14.1567 18.6906 14.9274V22.3002Z" fill="white"/>
<path d="M132.395 46.838C124.63 46.838 120 41.3621 120 30.8085C120 19.0601 125.775 10.9956 134.885 10.9956C141.406 10.9956 144.592 15.1772 144.592 19.9064C144.592 21.599 144.194 22.1964 143.298 22.1964C142.849 22.1964 142.601 22.047 142.451 21.8479C142.501 21.5492 142.551 21.151 142.551 20.5038C142.551 15.8244 139.962 12.9371 134.885 12.9371C126.77 12.9371 121.991 20.3047 121.991 30.8583C121.991 40.2171 125.725 44.8965 132.445 44.8965C136.776 44.8965 140.062 43.0048 142.053 40.1673C142.75 40.3167 142.999 40.7647 142.999 41.2625C142.999 43.3035 138.618 46.838 132.395 46.838V46.838ZM161.567 18.9606C167.292 18.9606 171.772 22.6444 171.772 31.2067C171.772 40.3664 166.595 46.6886 159.427 46.6886C153.801 46.6886 148.873 42.8555 148.873 34.094C148.873 24.785 154.399 18.9606 161.567 18.9606V18.9606ZM161.418 20.7527C155.593 20.7527 150.814 25.8304 150.814 34.1438C150.814 41.8599 154.946 44.8965 159.377 44.8965C165.201 44.8965 169.831 39.7193 169.831 31.5054C169.831 23.9885 165.998 20.7527 161.418 20.7527V20.7527ZM183.57 46.8877C180.484 46.8877 178.294 44.8965 178.642 40.7647L180.882 10.2489C181.181 10.0996 181.38 10 181.728 10C182.376 10 182.674 10.2987 182.575 11.6428L180.384 40.7647C180.135 43.9009 181.529 45.0956 183.321 45.0956C184.865 45.0956 185.86 44.7472 186.707 43.8013C187.553 44.0004 187.603 44.3987 187.553 44.9463C187.453 45.8423 186.109 46.8877 183.57 46.8877V46.8877ZM214.584 45.245C215.181 45.7926 214.932 46.8877 213.588 46.8877C211.647 46.8877 210.353 45.7926 210.552 43.2537L210.751 40.4162H210.552C208.461 44.548 205.225 46.6886 200.994 46.6886C195.617 46.6886 192.83 43.5026 193.278 37.4293L194.323 23.4409C194.472 21.6488 193.726 21.151 192.133 21.151C191.585 20.5536 191.784 19.4584 193.178 19.4584C195.12 19.4584 196.364 20.5536 196.165 23.0924L195.12 37.3298C194.771 42.2581 196.762 44.8965 200.944 44.8965C207.316 44.8965 211 38.425 211.298 32.7997V33.2477L212.344 19.6575C212.394 19.558 212.792 19.4584 213.091 19.4584C213.837 19.4584 214.136 19.8566 214.086 20.5536L212.394 42.9053C212.244 44.6974 212.742 45.245 214.584 45.245V45.245ZM261.129 45.245C261.727 45.7926 261.478 46.8877 260.084 46.8877C258.192 46.8877 256.898 45.7926 257.097 43.2537L258.192 28.4688C258.59 23.5404 257.047 20.7527 252.617 20.7527C246.643 20.7527 243.557 26.4775 242.76 30.6591L241.615 46.141C241.515 46.2406 241.117 46.3402 240.819 46.3402C240.122 46.3402 239.823 45.9917 239.823 45.245L241.117 28.4688C241.466 23.5404 239.923 20.7527 235.492 20.7527C229.07 20.7527 225.934 27.4234 225.436 32.2521L224.391 46.141C224.291 46.2406 223.943 46.3402 223.594 46.3402C222.897 46.3402 222.599 45.9917 222.648 45.2948L224.241 23.4907C224.391 21.6985 223.644 21.151 221.802 21.151C221.205 20.6034 221.454 19.5082 223.097 19.5082C224.988 19.5082 226.282 20.5536 226.083 23.1422L225.934 25.3823H226.083C228.124 21.2505 231.51 18.9606 235.492 18.9606C240.171 18.9606 242.561 21.2505 242.959 25.5317H243.059C245.1 21.3999 248.584 18.9606 252.567 18.9606C258.192 18.9606 260.482 22.2959 260.034 28.3692L258.939 42.9053C258.79 44.6974 259.287 45.245 261.129 45.245V45.245ZM281.639 18.9606C287.563 18.9606 290.948 23.2418 290.948 30.9578C290.948 40.1673 286.169 46.6886 279.1 46.6886C274.222 46.6886 271.334 43.5026 270.687 40.7149H270.538L270.14 46.0912C269.891 46.2406 269.642 46.3402 269.293 46.3402C268.646 46.3402 268.347 45.9419 268.397 45.0956L270.986 10.2987C271.135 10.1493 271.434 10 271.832 10C272.479 10 272.778 10.4978 272.728 11.0952L271.683 24.9343H271.832C273.923 21.2007 277.408 18.9606 281.639 18.9606V18.9606ZM279.05 44.8965C284.775 44.8965 289.056 39.6695 289.056 31.2067C289.056 23.8391 285.87 20.7527 281.539 20.7527C276.711 20.7527 272.131 24.785 271.235 31.605L271.036 34.2931C270.986 39.0223 272.927 44.8965 279.05 44.8965ZM319.721 44.6476C320.269 45.245 320.07 46.3402 318.577 46.3402C316.934 46.3402 315.54 44.6974 315.739 42.0092L315.839 40.4162H315.689C313.598 44.6974 310.313 46.6886 305.932 46.6886C300.108 46.6886 296.573 41.9096 296.573 34.6416C296.573 25.681 301.402 19.0104 308.969 19.0104C314.196 19.0104 316.087 22.1964 316.784 25.2828H316.984L317.382 19.7073C317.631 19.558 317.88 19.4584 318.228 19.4584C318.875 19.4584 319.174 19.7571 319.074 21.1012L317.531 42.3577C317.382 44.1498 318.129 44.6476 319.721 44.6476ZM306.032 44.8965C311.259 44.8965 315.789 40.4162 316.386 33.198V33.2477L316.436 32.4512V32.501C316.685 27.6225 315.191 20.8523 308.67 20.8523C302.746 20.8523 298.515 26.5771 298.515 34.4923C298.515 41.0634 301.8 44.8965 306.032 44.8965V44.8965Z" fill="white"/>
<g filter="url(#filter0_d_2_13)">
<path d="M123.572 69.6064C121.348 69.6064 120 68.5209 120 67.873C120.018 67.5929 120.158 67.4178 120.385 67.3828C120.683 68.0831 121.681 68.9236 123.502 68.9236C125.883 68.9236 127.144 67.838 127.161 66.3848C127.214 62.848 120.928 64.0211 120.998 60.1516C121.033 58.3482 122.591 57 124.832 57C127.039 57 128.124 58.2957 128.107 59.6964C128.072 60.2917 127.897 60.4843 127.616 60.4843C127.476 60.4843 127.389 60.4493 127.319 60.3792V60.3617C127.336 60.2567 127.354 60.0991 127.354 59.924C127.389 58.6458 126.583 57.6828 124.797 57.6828C122.906 57.6828 121.733 58.7334 121.698 60.0641C121.646 63.4258 127.932 62.1651 127.861 66.4198C127.826 68.2932 126.181 69.6064 123.572 69.6064V69.6064ZM142.194 57.1751C142.404 57.1751 142.527 57.2977 142.492 57.7529L141.634 69.3613C141.599 69.3963 141.459 69.4313 141.354 69.4313C141.109 69.4313 140.951 69.3088 140.969 69.0461L141.371 63.5308H134.771L134.333 69.3613C134.298 69.3963 134.14 69.4313 134.035 69.4313C133.772 69.4313 133.65 69.3088 133.667 69.0461L134.543 57.2626C134.63 57.2101 134.735 57.1751 134.858 57.1751C135.086 57.1751 135.226 57.2977 135.191 57.7529L134.806 62.8655H141.424L141.844 57.2626C141.932 57.2101 142.054 57.1751 142.194 57.1751V57.1751ZM153.428 57.6303L156.615 69.2912C156.562 69.3438 156.422 69.4313 156.247 69.4313C156.002 69.4313 155.914 69.3613 155.862 69.1512L154.864 65.4043H149.488L147.825 69.3613C147.72 69.4138 147.65 69.4313 147.545 69.4313C147.265 69.4313 147.142 69.2387 147.23 69.0111L152.167 57.3677C152.465 57.2101 152.588 57.1751 152.85 57.1751C153.165 57.1751 153.375 57.3677 153.428 57.6303V57.6303ZM152.745 57.6828L149.786 64.7389H154.671L152.763 57.6828H152.745V57.6828ZM169.932 60.3442C169.932 62.3577 168.794 63.5833 166.885 63.9685L169.477 69.2037C169.372 69.3438 169.232 69.4313 169.074 69.4313C168.811 69.4313 168.724 69.2562 168.654 69.0986L166.185 64.0561C165.957 64.0736 165.73 64.0911 165.502 64.0911C164.784 64.0911 163.821 64.0036 163.191 63.881L162.788 69.3613C162.753 69.3963 162.596 69.4313 162.491 69.4313C162.228 69.4313 162.105 69.3088 162.123 69.0461L162.981 57.4727C163.751 57.2451 165.029 57 166.15 57C168.689 57 169.932 58.2606 169.932 60.3442V60.3442ZM163.243 63.2157C163.874 63.3382 164.872 63.4258 165.59 63.4258C168.041 63.4258 169.249 62.3402 169.249 60.3442C169.249 58.5933 168.321 57.6828 166.15 57.6828C165.292 57.6828 164.259 57.8229 163.629 58.0155L163.243 63.2157ZM182.776 57.1751C182.811 57.2626 182.829 57.3852 182.829 57.4552C182.829 57.6653 182.689 57.8404 182.514 57.8404H176.911L176.526 62.8655H182.041C182.076 62.9355 182.094 63.0756 182.094 63.1281C182.094 63.3382 182.024 63.5308 181.778 63.5308H176.473L176.088 68.766H182.321C182.356 68.8535 182.374 68.9761 182.374 69.0461C182.374 69.3088 182.234 69.4313 182.059 69.4313H175.755C175.51 69.4313 175.37 69.2912 175.388 69.0286L176.263 57.1751H182.776V57.1751ZM198.38 69.4313C198.048 69.4313 197.803 69.2562 197.767 68.9936L195.684 57.3327C195.719 57.2626 195.859 57.1751 196.052 57.1751C196.279 57.1751 196.384 57.2451 196.419 57.4552L198.503 68.9411H198.538L202.688 57.3677C203.003 57.2101 203.16 57.1751 203.423 57.1751C203.756 57.1751 203.983 57.3677 204.036 57.6128L205.909 68.9411H205.944C208.045 65.1591 209.376 61.2547 209.989 57.2451C210.094 57.1926 210.181 57.1751 210.304 57.1751C210.566 57.1751 210.637 57.3852 210.602 57.6128C210.006 61.6223 208.728 65.4743 206.539 69.2387C206.224 69.3963 206.067 69.4313 205.804 69.4313C205.471 69.4313 205.244 69.2562 205.191 68.9936L203.318 57.7529H203.3L199.116 69.2387C198.801 69.3963 198.643 69.4313 198.38 69.4313V69.4313ZM216.145 69.4313C215.882 69.4313 215.742 69.3088 215.76 69.0461L216.635 57.2626C216.723 57.2101 216.845 57.1751 216.968 57.1751C217.195 57.1751 217.318 57.2977 217.283 57.7529L216.425 69.3613C216.39 69.3963 216.25 69.4313 216.145 69.4313V69.4313ZM230.845 57.1751C230.88 57.2626 230.898 57.3852 230.898 57.4552C230.898 57.6653 230.74 57.8404 230.513 57.8404H227.081V57.8754L226.205 69.3613C226.188 69.3963 226.013 69.4313 225.908 69.4313C225.663 69.4313 225.523 69.3088 225.54 69.0461L226.381 57.8404H222.739C222.721 57.7879 222.704 57.6653 222.704 57.5778C222.704 57.3502 222.826 57.1751 223.089 57.1751H230.845V57.1751ZM243.987 57.1751C244.198 57.1751 244.32 57.2977 244.285 57.7529L243.427 69.3613C243.392 69.3963 243.252 69.4313 243.147 69.4313C242.902 69.4313 242.744 69.3088 242.762 69.0461L243.165 63.5308H236.564L236.126 69.3613C236.091 69.3963 235.933 69.4313 235.828 69.4313C235.566 69.4313 235.443 69.3088 235.461 69.0461L236.336 57.2626C236.424 57.2101 236.529 57.1751 236.651 57.1751C236.879 57.1751 237.019 57.2977 236.984 57.7529L236.599 62.8655H243.217L243.637 57.2626C243.725 57.2101 243.847 57.1751 243.987 57.1751V57.1751ZM262.095 69.6064C259.224 69.6064 258.103 67.9606 258.296 65.2817L258.891 57.2626C258.979 57.2101 259.084 57.1751 259.206 57.1751C259.434 57.1751 259.574 57.2977 259.539 57.7529L258.961 65.2992C258.786 67.5929 259.696 68.9236 262.148 68.9236C264.529 68.9236 265.439 67.733 265.614 65.4743L266.245 57.2626C266.332 57.2101 266.472 57.1751 266.595 57.1751C266.805 57.1751 266.945 57.2977 266.91 57.7529L266.297 65.6669C266.14 67.768 265.124 69.6064 262.095 69.6064V69.6064ZM275.465 69.6064C273.241 69.6064 271.893 68.5209 271.893 67.873C271.911 67.5929 272.051 67.4178 272.278 67.3828C272.576 68.0831 273.574 68.9236 275.395 68.9236C277.776 68.9236 279.037 67.838 279.054 66.3848C279.107 62.848 272.821 64.0211 272.891 60.1516C272.926 58.3482 274.484 57 276.726 57C278.932 57 280.017 58.2957 280 59.6964C279.965 60.2917 279.79 60.4843 279.51 60.4843C279.369 60.4843 279.282 60.4493 279.212 60.3792V60.3617C279.229 60.2567 279.247 60.0991 279.247 59.924C279.282 58.6458 278.476 57.6828 276.691 57.6828C274.8 57.6828 273.627 58.7334 273.592 60.0641C273.539 63.4258 279.825 62.1651 279.755 66.4198C279.72 68.2932 278.074 69.6064 275.465 69.6064V69.6064Z" fill="white"/>
<path d="M123.572 69.6064C121.348 69.6064 120 68.5209 120 67.873C120.018 67.5929 120.158 67.4178 120.385 67.3828C120.683 68.0831 121.681 68.9236 123.502 68.9236C125.883 68.9236 127.144 67.838 127.161 66.3848C127.214 62.848 120.928 64.0211 120.998 60.1516C121.033 58.3482 122.591 57 124.832 57C127.039 57 128.124 58.2957 128.107 59.6964C128.072 60.2917 127.897 60.4843 127.616 60.4843C127.476 60.4843 127.389 60.4493 127.319 60.3792V60.3617C127.336 60.2567 127.354 60.0991 127.354 59.924C127.389 58.6458 126.583 57.6828 124.797 57.6828C122.906 57.6828 121.733 58.7334 121.698 60.0641C121.646 63.4258 127.932 62.1651 127.861 66.4198C127.826 68.2932 126.181 69.6064 123.572 69.6064V69.6064ZM142.194 57.1751C142.404 57.1751 142.527 57.2977 142.492 57.7529L141.634 69.3613C141.599 69.3963 141.459 69.4313 141.354 69.4313C141.109 69.4313 140.951 69.3088 140.969 69.0461L141.371 63.5308H134.771L134.333 69.3613C134.298 69.3963 134.14 69.4313 134.035 69.4313C133.772 69.4313 133.65 69.3088 133.667 69.0461L134.543 57.2626C134.63 57.2101 134.735 57.1751 134.858 57.1751C135.086 57.1751 135.226 57.2977 135.191 57.7529L134.806 62.8655H141.424L141.844 57.2626C141.932 57.2101 142.054 57.1751 142.194 57.1751V57.1751ZM153.428 57.6303L156.615 69.2912C156.562 69.3438 156.422 69.4313 156.247 69.4313C156.002 69.4313 155.914 69.3613 155.862 69.1512L154.864 65.4043H149.488L147.825 69.3613C147.72 69.4138 147.65 69.4313 147.545 69.4313C147.265 69.4313 147.142 69.2387 147.23 69.0111L152.167 57.3677C152.465 57.2101 152.588 57.1751 152.85 57.1751C153.165 57.1751 153.375 57.3677 153.428 57.6303V57.6303ZM152.745 57.6828L149.786 64.7389H154.671L152.763 57.6828H152.745V57.6828ZM169.932 60.3442C169.932 62.3577 168.794 63.5833 166.885 63.9685L169.477 69.2037C169.372 69.3438 169.232 69.4313 169.074 69.4313C168.811 69.4313 168.724 69.2562 168.654 69.0986L166.185 64.0561C165.957 64.0736 165.73 64.0911 165.502 64.0911C164.784 64.0911 163.821 64.0036 163.191 63.881L162.788 69.3613C162.753 69.3963 162.596 69.4313 162.491 69.4313C162.228 69.4313 162.105 69.3088 162.123 69.0461L162.981 57.4727C163.751 57.2451 165.029 57 166.15 57C168.689 57 169.932 58.2606 169.932 60.3442V60.3442ZM163.243 63.2157C163.874 63.3382 164.872 63.4258 165.59 63.4258C168.041 63.4258 169.249 62.3402 169.249 60.3442C169.249 58.5933 168.321 57.6828 166.15 57.6828C165.292 57.6828 164.259 57.8229 163.629 58.0155L163.243 63.2157ZM182.776 57.1751C182.811 57.2626 182.829 57.3852 182.829 57.4552C182.829 57.6653 182.689 57.8404 182.514 57.8404H176.911L176.526 62.8655H182.041C182.076 62.9355 182.094 63.0756 182.094 63.1281C182.094 63.3382 182.024 63.5308 181.778 63.5308H176.473L176.088 68.766H182.321C182.356 68.8535 182.374 68.9761 182.374 69.0461C182.374 69.3088 182.234 69.4313 182.059 69.4313H175.755C175.51 69.4313 175.37 69.2912 175.388 69.0286L176.263 57.1751H182.776V57.1751ZM198.38 69.4313C198.048 69.4313 197.803 69.2562 197.767 68.9936L195.684 57.3327C195.719 57.2626 195.859 57.1751 196.052 57.1751C196.279 57.1751 196.384 57.2451 196.419 57.4552L198.503 68.9411H198.538L202.688 57.3677C203.003 57.2101 203.16 57.1751 203.423 57.1751C203.756 57.1751 203.983 57.3677 204.036 57.6128L205.909 68.9411H205.944C208.045 65.1591 209.376 61.2547 209.989 57.2451C210.094 57.1926 210.181 57.1751 210.304 57.1751C210.566 57.1751 210.637 57.3852 210.602 57.6128C210.006 61.6223 208.728 65.4743 206.539 69.2387C206.224 69.3963 206.067 69.4313 205.804 69.4313C205.471 69.4313 205.244 69.2562 205.191 68.9936L203.318 57.7529H203.3L199.116 69.2387C198.801 69.3963 198.643 69.4313 198.38 69.4313V69.4313ZM216.145 69.4313C215.882 69.4313 215.742 69.3088 215.76 69.0461L216.635 57.2626C216.723 57.2101 216.845 57.1751 216.968 57.1751C217.195 57.1751 217.318 57.2977 217.283 57.7529L216.425 69.3613C216.39 69.3963 216.25 69.4313 216.145 69.4313V69.4313ZM230.845 57.1751C230.88 57.2626 230.898 57.3852 230.898 57.4552C230.898 57.6653 230.74 57.8404 230.513 57.8404H227.081V57.8754L226.205 69.3613C226.188 69.3963 226.013 69.4313 225.908 69.4313C225.663 69.4313 225.523 69.3088 225.54 69.0461L226.381 57.8404H222.739C222.721 57.7879 222.704 57.6653 222.704 57.5778C222.704 57.3502 222.826 57.1751 223.089 57.1751H230.845V57.1751ZM243.987 57.1751C244.198 57.1751 244.32 57.2977 244.285 57.7529L243.427 69.3613C243.392 69.3963 243.252 69.4313 243.147 69.4313C242.902 69.4313 242.744 69.3088 242.762 69.0461L243.165 63.5308H236.564L236.126 69.3613C236.091 69.3963 235.933 69.4313 235.828 69.4313C235.566 69.4313 235.443 69.3088 235.461 69.0461L236.336 57.2626C236.424 57.2101 236.529 57.1751 236.651 57.1751C236.879 57.1751 237.019 57.2977 236.984 57.7529L236.599 62.8655H243.217L243.637 57.2626C243.725 57.2101 243.847 57.1751 243.987 57.1751V57.1751ZM262.095 69.6064C259.224 69.6064 258.103 67.9606 258.296 65.2817L258.891 57.2626C258.979 57.2101 259.084 57.1751 259.206 57.1751C259.434 57.1751 259.574 57.2977 259.539 57.7529L258.961 65.2992C258.786 67.5929 259.696 68.9236 262.148 68.9236C264.529 68.9236 265.439 67.733 265.614 65.4743L266.245 57.2626C266.332 57.2101 266.472 57.1751 266.595 57.1751C266.805 57.1751 266.945 57.2977 266.91 57.7529L266.297 65.6669C266.14 67.768 265.124 69.6064 262.095 69.6064V69.6064ZM275.465 69.6064C273.241 69.6064 271.893 68.5209 271.893 67.873C271.911 67.5929 272.051 67.4178 272.278 67.3828C272.576 68.0831 273.574 68.9236 275.395 68.9236C277.776 68.9236 279.037 67.838 279.054 66.3848C279.107 62.848 272.821 64.0211 272.891 60.1516C272.926 58.3482 274.484 57 276.726 57C278.932 57 280.017 58.2957 280 59.6964C279.965 60.2917 279.79 60.4843 279.51 60.4843C279.369 60.4843 279.282 60.4493 279.212 60.3792V60.3617C279.229 60.2567 279.247 60.0991 279.247 59.924C279.282 58.6458 278.476 57.6828 276.691 57.6828C274.8 57.6828 273.627 58.7334 273.592 60.0641C273.539 63.4258 279.825 62.1651 279.755 66.4198C279.72 68.2932 278.074 69.6064 275.465 69.6064V69.6064Z" stroke="white"/>
</g>
<defs>
<filter id="filter0_d_2_13" x="116" y="57" width="168" height="20.6064" filterUnits="userSpaceOnUse" color-interpolation-filters="sRGB">
<feFlood flood-opacity="0" result="BackgroundImageFix"/>
<feColorMatrix in="SourceAlpha" type="matrix" values="0 0 0 0 0 0 0 0 0 0 0 0 0 0 0 0 0 0 127 0" result="hardAlpha"/>
<feOffset dy="4"/>
<feGaussianBlur stdDeviation="2"/>
<feComposite in2="hardAlpha" operator="out"/>
<feColorMatrix type="matrix" values="0 0 0 0 0 0 0 0 0 0 0 0 0 0 0 0 0 0 0.25 0"/>
<feBlend mode="normal" in2="BackgroundImageFix" result="effect1_dropShadow_2_13"/>
<feBlend mode="normal" in="SourceGraphic" in2="effect1_dropShadow_2_13" result="shape"/>
</filter>
</defs>
</svg>
