<svg width="100" height="80" viewBox="0 0 100 80" fill="none" xmlns="http://www.w3.org/2000/svg">
<path d="M63.3111 65.2424C72.729 65.2424 80.3638 57.6077 80.3638 48.1897C80.3638 38.7718 72.729 31.137 63.3111 31.137C53.8931 31.137 46.2584 38.7718 46.2584 48.1897C46.2584 57.6077 53.8931 65.2424 63.3111 65.2424Z" fill="white"/>
<path d="M87.3386 48.1907C87.3386 61.4591 76.5814 72.2162 63.3121 72.2162C50.0427 72.2162 39.2865 61.4591 39.2865 48.1907C39.2865 43.6788 40.5326 39.4594 42.6951 35.8529H0V75.247C0 77.3984 1.74446 79.1428 3.8959 79.1428H96.1041C98.2555 79.1428 100 77.3984 100 75.247V35.8529H83.9291C86.0915 39.4594 87.3386 43.6788 87.3386 48.1907Z" fill="white"/>
<path d="M96.1041 10.7441H86.4955L76.6839 0H49.9402L40.1276 10.7441H20.2753V9.1142C20.2753 8.34246 19.6503 7.71743 18.8786 7.71743H6.22921C5.45747 7.71743 4.83244 8.34347 4.83244 9.1142V10.7441H3.8959C1.74446 10.7441 0 12.4886 0 14.64V31.7399H45.8082C50.1904 27.0793 56.4096 24.1642 63.3111 24.1642C70.2135 24.1642 76.4317 27.0793 80.8139 31.7399H100V14.64C100 12.4886 98.2555 10.7441 96.1041 10.7441ZM93.5497 19.8081C91.8153 19.8081 90.4105 18.4033 90.4105 16.6698C90.4105 14.9364 91.8153 13.5306 93.5497 13.5306C95.2831 13.5306 96.6879 14.9354 96.6879 16.6698C96.6879 18.4023 95.2831 19.8081 93.5497 19.8081ZM18.6906 22.3002C18.6906 23.0719 18.0646 23.6969 17.2929 23.6969H4.64352C3.87178 23.6969 3.24675 23.0719 3.24675 22.3002V14.9274C3.24675 14.1557 3.87178 13.5306 4.64352 13.5306H17.2929C18.0646 13.5306 18.6906 14.1567 18.6906 14.9274V22.3002Z" fill="white"/>
</svg>
