<svg width="200" height="37" viewBox="0 0 200 37" fill="none" xmlns="http://www.w3.org/2000/svg">
<path d="M12.3955 36.838C4.62964 36.838 0 31.3621 0 20.8085C0 9.06015 5.7746 0.995621 14.8845 0.995621C21.4058 0.995621 24.5918 5.17723 24.5918 9.90643C24.5918 11.599 24.1936 12.1964 23.2975 12.1964C22.8495 12.1964 22.6006 12.047 22.4512 11.8479C22.501 11.5492 22.5508 11.151 22.5508 10.5038C22.5508 5.82438 19.9622 2.93708 14.8845 2.93708C6.77022 2.93708 1.99124 10.3047 1.99124 20.8583C1.99124 30.2171 5.72482 34.8965 12.4453 34.8965C16.7762 34.8965 20.0618 33.0048 22.053 30.1673C22.7499 30.3167 22.9988 30.7647 22.9988 31.2625C22.9988 33.3035 18.6181 36.838 12.3955 36.838V36.838ZM41.5672 8.96059C47.292 8.96059 51.7723 12.6444 51.7723 21.2067C51.7723 30.3664 46.595 36.6886 39.4266 36.6886C33.8013 36.6886 28.873 32.8555 28.873 24.094C28.873 14.785 34.3987 8.96059 41.5672 8.96059V8.96059ZM41.4178 10.7527C35.5934 10.7527 30.8145 15.8304 30.8145 24.1438C30.8145 31.8599 34.9463 34.8965 39.3768 34.8965C45.2012 34.8965 49.8308 29.7193 49.8308 21.5054C49.8308 13.9885 45.9977 10.7527 41.4178 10.7527V10.7527ZM63.5704 36.8877C60.484 36.8877 58.2936 34.8965 58.6421 30.7647L60.8822 0.248905C61.1809 0.0995618 61.38 0 61.7285 0C62.3756 0 62.6743 0.298686 62.5748 1.64277L60.3844 30.7647C60.1355 33.9009 61.5294 35.0956 63.3215 35.0956C64.8647 35.0956 65.8603 34.7472 66.7066 33.8013C67.5529 34.0004 67.6026 34.3987 67.5529 34.9463C67.4533 35.8423 66.1092 36.8877 63.5704 36.8877V36.8877ZM94.584 35.245C95.1813 35.7926 94.9324 36.8877 93.5883 36.8877C91.6469 36.8877 90.3526 35.7926 90.5517 33.2537L90.7508 30.4162H90.5517C88.4609 34.548 85.2251 36.6886 80.9937 36.6886C75.6174 36.6886 72.8297 33.5026 73.2777 27.4293L74.3231 13.4409C74.4724 11.6488 73.7257 11.151 72.1327 11.151C71.5851 10.5536 71.7842 9.4584 73.1781 9.4584C75.1196 9.4584 76.3641 10.5536 76.165 13.0924L75.1196 27.3298C74.7711 32.2581 76.7624 34.8965 80.944 34.8965C87.3159 34.8965 90.9997 28.425 91.2984 22.7997V23.2477L92.3438 9.65752C92.3936 9.55796 92.7918 9.4584 93.0905 9.4584C93.8372 9.4584 94.1359 9.85664 94.0861 10.5536L92.3936 32.9053C92.2442 34.6974 92.7421 35.245 94.584 35.245V35.245ZM141.129 35.245C141.727 35.7926 141.478 36.8877 140.084 36.8877C138.192 36.8877 136.898 35.7926 137.097 33.2537L138.192 18.4688C138.59 13.5404 137.047 10.7527 132.617 10.7527C126.643 10.7527 123.557 16.4775 122.76 20.6591L121.615 36.141C121.515 36.2406 121.117 36.3402 120.819 36.3402C120.122 36.3402 119.823 35.9917 119.823 35.245L121.117 18.4688C121.466 13.5404 119.923 10.7527 115.492 10.7527C109.07 10.7527 105.934 17.4234 105.436 22.2521L104.391 36.141C104.291 36.2406 103.943 36.3402 103.594 36.3402C102.897 36.3402 102.599 35.9917 102.648 35.2948L104.241 13.4907C104.391 11.6985 103.644 11.151 101.802 11.151C101.205 10.6034 101.454 9.50818 103.097 9.50818C104.988 9.50818 106.282 10.5536 106.083 13.1422L105.934 15.3823H106.083C108.124 11.2505 111.51 8.96059 115.492 8.96059C120.171 8.96059 122.561 11.2505 122.959 15.5317H123.059C125.1 11.3999 128.584 8.96059 132.567 8.96059C138.192 8.96059 140.482 12.2959 140.034 18.3692L138.939 32.9053C138.79 34.6974 139.287 35.245 141.129 35.245V35.245ZM161.639 8.96059C167.563 8.96059 170.948 13.2418 170.948 20.9578C170.948 30.1673 166.169 36.6886 159.1 36.6886C154.222 36.6886 151.334 33.5026 150.687 30.7149H150.538L150.14 36.0912C149.891 36.2406 149.642 36.3402 149.293 36.3402C148.646 36.3402 148.347 35.9419 148.397 35.0956L150.986 0.298686C151.135 0.149343 151.434 0 151.832 0C152.479 0 152.778 0.49781 152.728 1.09518L151.683 14.9343H151.832C153.923 11.2007 157.408 8.96059 161.639 8.96059V8.96059ZM159.05 34.8965C164.775 34.8965 169.056 29.6695 169.056 21.2067C169.056 13.8391 165.87 10.7527 161.539 10.7527C156.711 10.7527 152.131 14.785 151.235 21.605L151.036 24.2931C150.986 29.0223 152.927 34.8965 159.05 34.8965ZM199.721 34.6476C200.269 35.245 200.07 36.3402 198.577 36.3402C196.934 36.3402 195.54 34.6974 195.739 32.0092L195.839 30.4162H195.689C193.598 34.6974 190.313 36.6886 185.932 36.6886C180.108 36.6886 176.573 31.9096 176.573 24.6416C176.573 15.681 181.402 9.01037 188.969 9.01037C194.196 9.01037 196.087 12.1964 196.784 15.2828H196.984L197.382 9.7073C197.631 9.55796 197.88 9.4584 198.228 9.4584C198.875 9.4584 199.174 9.75708 199.074 11.1012L197.531 32.3577C197.382 34.1498 198.129 34.6476 199.721 34.6476ZM186.032 34.8965C191.259 34.8965 195.789 30.4162 196.386 23.198V23.2477L196.436 22.4512V22.501C196.685 17.6225 195.191 10.8523 188.67 10.8523C182.746 10.8523 178.515 16.5771 178.515 24.4923C178.515 31.0634 181.8 34.8965 186.032 34.8965V34.8965Z" fill="black"/>
</svg>
